<?xml version="1.0" encoding="utf-8"?>
<!-- Generator: Adobe Illustrator 21.0.1, SVG Export Plug-In . SVG Version: 6.00 Build 0)  -->
<svg version="1.1" id="Layer_1" xmlns="http://www.w3.org/2000/svg" xmlns:xlink="http://www.w3.org/1999/xlink" x="0px" y="0px"
	 viewBox="0 0 1200 8000" style="enable-background:new 0 0 1200 8000;" xml:space="preserve">
<style type="text/css">
	.st0{opacity:0.25;}
	.st1{fill:#4D4F59;}
	.st2{opacity:0.35;}
	.st3{fill:#9B9DA8;}
	.st4{fill:#8F9199;}
</style>
<title>MountainBack</title>
<g class="st0">
	
		<image style="overflow:visible;enable-background:new    ;" width="557" height="1138" xlink:href="3434EEE565FA53F6.png"  transform="matrix(1 0 0 1 1185 1122)">
	</image>
	
		<image style="overflow:visible;enable-background:new    ;" width="615" height="988" xlink:href="3434EEE565FA53FA.png"  transform="matrix(1 0 0 1 1185 2188)">
	</image>
	
		<image style="overflow:visible;enable-background:new    ;" width="672" height="1061" xlink:href="3434EEE565FA53FD.png"  transform="matrix(1 0 0 1 1185 3094)">
	</image>
	
		<image style="overflow:visible;enable-background:new    ;" width="439" height="1523" xlink:href="3434EEE565FA53FE.png"  transform="matrix(1 0 0 1 1184 4083)">
	</image>
	
		<image style="overflow:visible;enable-background:new    ;" width="439" height="1032" xlink:href="3434EEE565FA53FC.png"  transform="matrix(1 0 0 1 1184 5534)">
	</image>
	
		<image style="overflow:visible;enable-background:new    ;" width="795" height="1562" xlink:href="3434EEE565FA53FB.png"  transform="matrix(1 0 0 1 1185 6460)">
	</image>
	
		<image style="overflow:visible;enable-background:new    ;" width="440" height="1231" xlink:href="3434EEE565FA53F5.png"  transform="matrix(1 0 0 1 1185 1122)">
	</image>
	
		<image style="overflow:visible;enable-background:new    ;" width="385" height="410" xlink:href="3434EEE565FA53F7.png"  transform="matrix(1 0 0 1 1184 2345)">
	</image>
	
		<image style="overflow:visible;enable-background:new    ;" width="495" height="356" xlink:href="3434EEE565FA53F4.png"  transform="matrix(1 0 0 1 1184 3130)">
	</image>
	
		<image style="overflow:visible;enable-background:new    ;" width="631" height="347" xlink:href="8BA68727BD2E22E9.png"  transform="matrix(1 0 0 1 1187 3472)">
	</image>
	
		<image style="overflow:visible;enable-background:new    ;" width="311" height="408" xlink:href="8BA68727BD2E22EF.png"  transform="matrix(1 0 0 1 1184 3747)">
	</image>
	
		<image style="overflow:visible;enable-background:new    ;" width="389" height="350" xlink:href="8BA68727BD2E22E8.png"  transform="matrix(1 0 0 1 1185 4258)">
	</image>
	
		<image style="overflow:visible;enable-background:new    ;" width="390" height="233" xlink:href="8BA68727BD2E22EB.png"  transform="matrix(1 0 0 1 1184 4740)">
	</image>
	
		<image style="overflow:visible;enable-background:new    ;" width="439" height="340" xlink:href="8BA68727BD2E22F7.png"  transform="matrix(1 0 0 1 1184 4991)">
	</image>
	
		<image style="overflow:visible;enable-background:new    ;" width="416" height="261" xlink:href="8BA68727BD2E22E7.png"  transform="matrix(1 0 0 1 1184 5345)">
	</image>
	
		<image style="overflow:visible;enable-background:new    ;" width="339" height="298" xlink:href="8BA68727BD2E22F9.png"  transform="matrix(1 0 0 1 1185 6223)">
	</image>
	
		<image style="overflow:visible;enable-background:new    ;" width="475" height="256" xlink:href="8BA68727BD2E22FB.png"  transform="matrix(1 0 0 1 1184 6557)">
	</image>
	
		<image style="overflow:visible;enable-background:new    ;" width="570" height="521" xlink:href="8BA68727BD2E22F8.png"  transform="matrix(1 0 0 1 1185 6834)">
	</image>
	
		<image style="overflow:visible;enable-background:new    ;" width="236" height="138" xlink:href="8BA68727BD2E22FF.png"  transform="matrix(1 0 0 1 1184 7596)">
	</image>
	
		<image style="overflow:visible;enable-background:new    ;" width="353" height="423" xlink:href="8BA68727BD2E231C.png"  transform="matrix(1 0 0 1 1184 5603)">
	</image>
	
		<image style="overflow:visible;enable-background:new    ;" width="538" height="394" xlink:href="8BA68727BD2E231F.png"  transform="matrix(1 0 0 1 1185 800)">
	</image>
</g>
<rect x="2" y="2" class="st1" width="1202" height="8010"/>
<g class="st2">
	<polygon class="st3" points="764.2,1172 795.2,1461 431.2,1620 795.2,1787 521,2030 743,2238 3.6,2238 3.6,1172 	"/>
	<polygon class="st4" points="592.8,1694 555.3,1608 795.2,1461 493.2,1387 346.4,1616 	"/>
	<polygon class="st4" points="117.9,2047 795.2,1787 346.4,1787 104.8,1691 	"/>
	<polygon class="st4" points="493.2,1387 199.5,1370 104.8,1466 	"/>
	<polygon class="st3" points="743,2238 677.7,2380 795.2,2494 889.8,2660 563.4,2891 470.4,3042 530.8,3144 3.6,3154 3.6,2238 	"/>
	<polygon class="st3" points="530.8,3144 692.4,3394 889.8,3472 982.9,3556 889.8,3777 796.8,3932 392.1,3968 248.4,4133 3.6,4133 
		3.6,3154 	"/>
	<polygon class="st3" points="248.4,4133 338.2,4443 521,4586 521,4790 423.1,4951 601,5309 563.4,5470 217.4,5584 2,5584 3.6,4133 
			"/>
	<polygon class="st3" points="217.4,5584 504.1,5478 787.1,5878 584.7,6224 494.9,6343 439.4,6450 501.4,6510 3.6,6543.5 2,5584 	
		"/>
	<polygon class="st3" points="501.4,6510 659.7,6791 816.4,6963 816.4,7268 511.2,7333 418.2,7480 188.1,7493 269.7,7687 
		256.6,7839 517.7,7808 517.9,7808 850.3,7882 1183.6,7940 1183.6,8000 3.6,8000 3.6,6544 	"/>
	<polygon class="st4" points="263.1,2331 269.7,2126 117.9,2047 104.8,1691 346.4,1616 104.8,1466 199.5,1370 467.1,1270 603,1172 
		3.6,1172 3.6,2238 	"/>
	<polygon class="st4" points="677.7,2386 331.7,2439 628.7,2518 795.2,2494 	"/>
	<polygon class="st4" points="563.4,2891 370.9,2706 42.8,2930 331.7,2847 470.4,3042 	"/>
	<polygon class="st4" points="331.7,2439 512.8,2574 370.9,2706 2,2732.2 10.1,2395.5 	"/>
	<polygon class="st4" points="7.3,3522 519.4,3655 751.1,3595 918.8,3708.2 630.3,3797 392.1,3746 114.6,3782 8.9,3797 	"/>
	<polygon class="st4" points="338.2,4443 3.6,4308.8 3.6,4550.1 196.2,4566 521,4586 	"/>
	<polygon class="st4" points="521,4790 2,4800 423.1,4951 	"/>
	<polygon class="st4" points="601,5309 184.8,5041 2,5256 204.4,5164 	"/>
	<polygon class="st4" points="563.4,5470 251.7,5395 2,5482 217.4,5584 	"/>
	<polygon class="st4" points="601,5988 300.7,5932 51,6064 251.7,6212 584.7,6224 	"/>
	<polygon class="st4" points="439.4,6450 5.2,6273.8 5.2,6498.1 	"/>
	<polygon class="st4" points="659.7,6791 374.1,6607 166.8,6692 2,6722.5 90.1,6761 281.1,6759 369.2,6699 	"/>
	<polygon class="st4" points="5.2,6959.8 272.9,6884 816.4,6960 816.4,7268 511.2,7333 222.3,7315 5.2,7235.8 	"/>
	<polygon class="st4" points="410,7480 82,7392 41.2,7480 188.1,7493 	"/>
	<polygon class="st4" points="517.7,7808 256.6,7839 88.5,7898 238.6,7965 517.7,7965 570,7937 	"/>
	<polygon class="st4" points="269.7,7687 2,7646.8 2,7711.1 	"/>
	<polygon class="st4" points="2,6004 2,5853 130.9,5752.1 133.6,5653.6 724.8,5830 	"/>
	<polygon class="st4" points="764.2,1172 656.5,994 346.4,948 163.6,850 3.6,873 3.6,1172 	"/>
	<polygon class="st3" points="3.8,1290.8 219.1,1192 179.9,1109 2,1052 	"/>
	<polygon class="st3" points="257.4,7839 188.1,7493 764.8,7252 400.8,7085 675,6842 453,6634 1192.4,6634 1192.4,7700 	"/>
	<polygon class="st4" points="603.2,7178 511.9,7255 400.8,7411 702.8,7485 849.6,7256 	"/>
	<polygon class="st4" points="1078.1,6825 400.8,7085 849.6,7085 1091.2,7181 	"/>
	<polygon class="st4" points="702.8,7485 996.5,7502 1091.2,7406 	"/>
	<polygon class="st3" points="453,6634 439.1,6498 400.8,6378 306.2,6212 632.6,5981 725.6,5830 665.2,5728 1192.4,5718 
		1192.4,6634 	"/>
	<polygon class="st3" points="665.2,5728 503.6,5478 306.2,5400 213.1,5316 306.2,5095 399.2,4940 803.9,4904 947.6,4739 
		1192.4,4739 1192.4,5718 	"/>
	<polygon class="st3" points="947.6,4739 857.8,4429 675,4286 675,4082 772.9,3921 595,3563 632.6,3402 978.6,3288 1194,3288 
		1192.4,4739 	"/>
	<polygon class="st3" points="978.6,3288 750.1,3077 595,2884 611.3,2648 701.1,2529 756.6,2422 694.6,2362 1192.4,2328.5 
		1194,3288 	"/>
	<polygon class="st3" points="694.6,2452 536.3,2154 379.6,1971.6 379.6,1648.2 684.8,1579.3 777.8,1423.4 727.4,1387 727.4,1247 
		678.1,1076 678.3,1075.6 570.7,1035 399.3,986 12.4,935.6 12.4,872 1192.4,872 1192.4,2415.9 	"/>
	<polygon class="st4" points="932.9,6541 926.3,6746 1078.1,6825 1091.2,7181 849.6,7256 1091.2,7406 996.5,7502 728.9,7602 
		593,7700 1192.4,7700 1192.4,6634 	"/>
	<polygon class="st4" points="518.3,6486 864.3,6433 567.3,6354 400.8,6378 	"/>
	<polygon class="st4" points="632.6,5981 825.2,6166 1153.2,5942 864.3,6025 725.6,5830 	"/>
	<polygon class="st4" points="864.3,6433 683.2,6298 825.2,6166 1194,6139.8 1185.9,6476.5 	"/>
	<polygon class="st4" points="503.6,5478 594.1,5618 931.2,5692 1194,5614.2 1030.8,5533 872.5,5408 	"/>
	<polygon class="st4" points="1188.7,5350 676.6,5217 444.9,5277 277.2,5163.8 565.7,5075 803.9,5126 1081.4,5090 1187.1,5075 	"/>
	<polygon class="st4" points="803.9,4904 1189.1,5075 1194,4754.8 947.6,4739 	"/>
	<polygon class="st4" points="675,4082 1194,4072 772.9,3921 	"/>
	<polygon class="st4" points="595,3563 1011.2,3831 1194,3616 991.6,3708 	"/>
	<polygon class="st4" points="595,2884 895.3,2940 1145,2808 944.3,2660 611.3,2648 	"/>
	<polygon class="st4" points="756.6,2422 1190.8,2598.2 1190.8,2373.9 	"/>
	<polygon class="st4" points="536.3,2081 821.9,2265 1029.2,2180 1194,2149.5 1105.9,2111 914.9,2113 826.8,2173 	"/>
	<polygon class="st4" points="1190.8,1899 923.1,1988 379.6,1898.8 379.6,1537.3 684.8,1461 973.7,1482.1 1190.8,1575.1 	"/>
	<polygon class="st4" points="786,1392 1114,1480 1154.8,1392 1008,1379 	"/>
	<polygon class="st4" points="678.3,1064 939.4,1033 1107.5,974 957.3,907 678.3,907 626,935 	"/>
	<polygon class="st4" points="926.3,1185 1194,1225.2 1194,1160.9 	"/>
	<polygon class="st4" points="1194,2868 1194,3019 1065.1,3119.9 1062.4,3218.4 735.7,3064.3 	"/>
	<polygon class="st4" points="431.8,7700 257.4,7839 849.6,7924 1032.4,8022 1192.4,7999 1192.4,7700 	"/>
	<polygon class="st3" points="1192.2,7581.2 976.9,7680 1016.1,7763 1194,7820 	"/>
	<polygon class="st3" points="765.5,3885 927,4221.7 1124.5,4326.8 1194,4448 1124.5,4737.5 1031.5,4946.3 626.8,4994.8 483.1,5217 
		238.3,5217 238.3,3898.5 	"/>
	<polygon class="st4" points="189.1,4397.9 701.2,4557.9 932.9,4485.7 1100.6,4621.9 812.1,4728.7 573.8,4667.4 296.4,4710.7 
		190.7,4728.7 	"/>
	<polygon class="st4" points="392.1,3968 6.9,3797 2,4117.2 248.4,4133 	"/>
	<polygon class="st3" points="338.9,2929.6 468.2,2960.6 564,2873.4 707.1,2796.8 928,2992.4 1066.6,3040.8 1154.4,2992.3 
		1188.3,3339.1 374,3417.3 	"/>
	<polygon class="st4" points="632.6,3402 944.3,3477 1194,3390 978.6,3288 	"/>
	<polygon class="st4" points="692.4,3394 601.9,3254 264.8,3180 2,3257.8 165.2,3339 323.5,3464 	"/>
	<polygon class="st4" points="857.8,4429 1192.4,4563.2 1192.4,4321.9 999.8,4306 675,4286 	"/>
</g>
<g class="st0">
	
		<image style="overflow:visible;enable-background:new    ;" width="600" height="1138" xlink:href="8BA68727BD2E231D.png"  transform="matrix(1 0 0 1 -580 1136)">
	</image>
	
		<image style="overflow:visible;enable-background:new    ;" width="352" height="1138" xlink:href="8BA68727BD2E2313.png"  transform="matrix(1 0 0 1 -332 1136)">
	</image>
	
		<image style="overflow:visible;enable-background:new    ;" width="591" height="1137" xlink:href="8BA68727BD2E2314.png"  transform="matrix(1 0 0 1 -571 2202)">
	</image>
	
		<image style="overflow:visible;enable-background:new    ;" width="696" height="1071" xlink:href="8BA68727BD2E2317.png"  transform="matrix(1 0 0 1 -676 3233)">
	</image>
	
		<image style="overflow:visible;enable-background:new    ;" width="840" height="1503" xlink:href="8BA68727BD2E2315.png"  transform="matrix(1 0 0 1 -820 4187)">
	</image>
	
		<image style="overflow:visible;enable-background:new    ;" width="655" height="1154" xlink:href="8BA68727BD2E2312.png"  transform="matrix(1 0 0 1 -635 5574)">
	</image>
	
		<image style="overflow:visible;enable-background:new    ;" width="736" height="1517" xlink:href="8BA68727BD2E230C.png"  transform="matrix(1 0 0 1 -716 6519)">
	</image>
	
		<image style="overflow:visible;enable-background:new    ;" width="540" height="309" xlink:href="8BA68727BD2E230F.png"  transform="matrix(1 0 0 1 -520 2489)">
	</image>
	
		<image style="overflow:visible;enable-background:new    ;" width="467" height="469" xlink:href="8BA68727BD2E2333.png"  transform="matrix(1 0 0 1 -447 2870)">
	</image>
	
		<image style="overflow:visible;enable-background:new    ;" width="300" height="460" xlink:href="8BA68727BD2E2331.png"  transform="matrix(1 0 0 1 -280 2597)">
	</image>
	
		<image style="overflow:visible;enable-background:new    ;" width="604" height="398" xlink:href="8BA68727BD2E230E.png"  transform="matrix(1 0 0 1 -584 3420)">
	</image>
	
		<image style="overflow:visible;enable-background:new    ;" width="696" height="306" xlink:href="8BA68727BD2E2311.png"  transform="matrix(1 0 0 1 -676 3834)">
	</image>
	
		<image style="overflow:visible;enable-background:new    ;" width="591" height="324" xlink:href="8BA68727BD2E2316.png"  transform="matrix(1 0 0 1 -571 4187)">
	</image>
	
		<image style="overflow:visible;enable-background:new    ;" width="591" height="440" xlink:href="8BA68727BD2E231A.png"  transform="matrix(1 0 0 1 -571 4688)">
	</image>
	
		<image style="overflow:visible;enable-background:new    ;" width="343" height="306" xlink:href="8BA68727BD2E231B.png"  transform="matrix(1 0 0 1 -322 4411)">
	</image>
	
		<image style="overflow:visible;enable-background:new    ;" width="655" height="403" xlink:href="8BA68727BD2E231E.png"  transform="matrix(1 0 0 1 -635 5917)">
	</image>
	
		<image style="overflow:visible;enable-background:new    ;" width="548" height="321" xlink:href="8BA68727BD2E2319.png"  transform="matrix(1 0 0 1 -528 5618)">
	</image>
	
		<image style="overflow:visible;enable-background:new    ;" width="647" height="389" xlink:href="8BA68727BD2E2318.png"  transform="matrix(1 0 0 1 -627 6317)">
	</image>
	
		<image style="overflow:visible;enable-background:new    ;" width="736" height="362" xlink:href="8BA68727BD2E237A.png"  transform="matrix(1 0 0 1 -716 6779)">
	</image>
	
		<image style="overflow:visible;enable-background:new    ;" width="329" height="215" xlink:href="8BA68727BD2E2379.png"  transform="matrix(1 0 0 1 -309 7651)">
	</image>
	
		<image style="overflow:visible;enable-background:new    ;" width="322" height="161" xlink:href="8BA68727BD2E237E.png"  transform="matrix(1 0 0 1 -302 7875)">
	</image>
	
		<image style="overflow:visible;enable-background:new    ;" width="200" height="267" xlink:href="8BA68727BD2E2378.png"  transform="matrix(1 0 0 1 -180 7406)">
	</image>
	
		<image style="overflow:visible;enable-background:new    ;" width="592" height="487" xlink:href="8BA68727BD2E237B.png"  transform="matrix(1 0 0 1 -571 2098)">
	</image>
	
		<image style="overflow:visible;enable-background:new    ;" width="352" height="312" xlink:href="8BA68727BD2E2367.png"  transform="matrix(1 0 0 1 -332 896)">
	</image>
</g>
</svg>
